<mxfile host="app.diagrams.net" modified="2022-04-07T08:12:48.934Z" agent="5.0 (Windows)" etag="25w7VIPZN8jQ7brICa4V" version="17.4.0" type="github">
  <diagram id="dC2nHla02OHMazLtvsP9" name="Page-1">
    <mxGraphModel dx="1221" dy="631" grid="1" gridSize="10" guides="1" tooltips="1" connect="1" arrows="1" fold="1" page="1" pageScale="1" pageWidth="827" pageHeight="1169" math="0" shadow="0">
      <root>
        <mxCell id="0" />
        <mxCell id="1" parent="0" />
        <mxCell id="YJq7etQ8eX4v05hcYT2W-5" value="Person&#xa;" style="swimlane;fontStyle=1;align=center;verticalAlign=top;childLayout=stackLayout;horizontal=1;startSize=26;horizontalStack=0;resizeParent=1;resizeParentMax=0;resizeLast=0;collapsible=1;marginBottom=0;" parent="1" vertex="1">
          <mxGeometry x="345" y="20" width="160" height="150" as="geometry" />
        </mxCell>
        <mxCell id="YJq7etQ8eX4v05hcYT2W-6" value="- personID : string&#xa;- password: string&#xa;" style="text;strokeColor=none;fillColor=none;align=left;verticalAlign=top;spacingLeft=4;spacingRight=4;overflow=hidden;rotatable=0;points=[[0,0.5],[1,0.5]];portConstraint=eastwest;" parent="YJq7etQ8eX4v05hcYT2W-5" vertex="1">
          <mxGeometry y="26" width="160" height="44" as="geometry" />
        </mxCell>
        <mxCell id="YJq7etQ8eX4v05hcYT2W-7" value="" style="line;strokeWidth=1;fillColor=none;align=left;verticalAlign=middle;spacingTop=-1;spacingLeft=3;spacingRight=3;rotatable=0;labelPosition=right;points=[];portConstraint=eastwest;dashed=1;" parent="YJq7etQ8eX4v05hcYT2W-5" vertex="1">
          <mxGeometry y="70" width="160" height="8" as="geometry" />
        </mxCell>
        <mxCell id="YJq7etQ8eX4v05hcYT2W-8" value="+ getID() : string&#xa;+ getPassword() : string&#xa;+ setID( string : id)&#xa;+ setPassword (string : pw)&#xa;" style="text;strokeColor=none;fillColor=none;align=left;verticalAlign=top;spacingLeft=4;spacingRight=4;overflow=hidden;rotatable=0;points=[[0,0.5],[1,0.5]];portConstraint=eastwest;" parent="YJq7etQ8eX4v05hcYT2W-5" vertex="1">
          <mxGeometry y="78" width="160" height="72" as="geometry" />
        </mxCell>
        <mxCell id="y-BGLNz_TRm2ThtAnBNB-19" style="edgeStyle=orthogonalEdgeStyle;rounded=0;orthogonalLoop=1;jettySize=auto;html=1;" parent="1" source="y-BGLNz_TRm2ThtAnBNB-1" target="YJq7etQ8eX4v05hcYT2W-8" edge="1">
          <mxGeometry relative="1" as="geometry" />
        </mxCell>
        <mxCell id="y-BGLNz_TRm2ThtAnBNB-1" value="User" style="swimlane;fontStyle=1;align=center;verticalAlign=top;childLayout=stackLayout;horizontal=1;startSize=26;horizontalStack=0;resizeParent=1;resizeParentMax=0;resizeLast=0;collapsible=1;marginBottom=0;" parent="1" vertex="1">
          <mxGeometry x="140" y="210" width="260" height="230" as="geometry" />
        </mxCell>
        <mxCell id="y-BGLNz_TRm2ThtAnBNB-2" value="- userTeam : Team&#xa;- budget : int&#xa;" style="text;strokeColor=none;fillColor=none;align=left;verticalAlign=top;spacingLeft=4;spacingRight=4;overflow=hidden;rotatable=0;points=[[0,0.5],[1,0.5]];portConstraint=eastwest;" parent="y-BGLNz_TRm2ThtAnBNB-1" vertex="1">
          <mxGeometry y="26" width="260" height="44" as="geometry" />
        </mxCell>
        <mxCell id="y-BGLNz_TRm2ThtAnBNB-3" value="" style="line;strokeWidth=1;fillColor=none;align=left;verticalAlign=middle;spacingTop=-1;spacingLeft=3;spacingRight=3;rotatable=0;labelPosition=right;points=[];portConstraint=eastwest;dashed=1;" parent="y-BGLNz_TRm2ThtAnBNB-1" vertex="1">
          <mxGeometry y="70" width="260" height="8" as="geometry" />
        </mxCell>
        <mxCell id="y-BGLNz_TRm2ThtAnBNB-4" value="+ getBudget () : int&#xa;+ setBudget (budget : int)&#xa;+ seePlayers()&#xa;+ buyPlayer(playerID: int): Player&#xa;+ sellPlayer(playerID: int): Player&#xa;+ seeLineup()&#xa;+ changeStatusPlayer(playerID: int): Player&#xa;+ displayScoreboard()&#xa;&#xa;" style="text;strokeColor=none;fillColor=none;align=left;verticalAlign=top;spacingLeft=4;spacingRight=4;overflow=hidden;rotatable=0;points=[[0,0.5],[1,0.5]];portConstraint=eastwest;" parent="y-BGLNz_TRm2ThtAnBNB-1" vertex="1">
          <mxGeometry y="78" width="260" height="152" as="geometry" />
        </mxCell>
        <mxCell id="y-BGLNz_TRm2ThtAnBNB-23" style="edgeStyle=orthogonalEdgeStyle;rounded=0;orthogonalLoop=1;jettySize=auto;html=1;entryX=1;entryY=0.5;entryDx=0;entryDy=0;" parent="1" source="y-BGLNz_TRm2ThtAnBNB-5" target="YJq7etQ8eX4v05hcYT2W-8" edge="1">
          <mxGeometry relative="1" as="geometry" />
        </mxCell>
        <mxCell id="y-BGLNz_TRm2ThtAnBNB-29" value="can create" style="edgeStyle=orthogonalEdgeStyle;rounded=0;orthogonalLoop=1;jettySize=auto;html=1;endArrow=none;endFill=0;" parent="1" source="y-BGLNz_TRm2ThtAnBNB-5" target="y-BGLNz_TRm2ThtAnBNB-9" edge="1">
          <mxGeometry relative="1" as="geometry" />
        </mxCell>
        <mxCell id="y-BGLNz_TRm2ThtAnBNB-5" value="Admin" style="swimlane;fontStyle=1;align=center;verticalAlign=top;childLayout=stackLayout;horizontal=1;startSize=26;horizontalStack=0;resizeParent=1;resizeParentMax=0;resizeLast=0;collapsible=1;marginBottom=0;" parent="1" vertex="1">
          <mxGeometry x="460" y="240" width="360" height="230" as="geometry" />
        </mxCell>
        <mxCell id="y-BGLNz_TRm2ThtAnBNB-7" value="" style="line;strokeWidth=1;fillColor=none;align=left;verticalAlign=middle;spacingTop=-1;spacingLeft=3;spacingRight=3;rotatable=0;labelPosition=right;points=[];portConstraint=eastwest;dashed=1;" parent="y-BGLNz_TRm2ThtAnBNB-5" vertex="1">
          <mxGeometry y="26" width="360" height="34" as="geometry" />
        </mxCell>
        <mxCell id="y-BGLNz_TRm2ThtAnBNB-8" value="+ createNewPlayer(name:string, position:string, &#xa;is_able_playing:boolean, market_value:int):Player&#xa;&#xa;+ deletePlayer(playerID:int)&#xa;&#xa;+addPersonSys(isAdmin:boolean, numericID:int, password:string,&#xa;budget:int)&#xa;&#xa;+updateScorePlayer(playerID:int, score:int)&#xa;&#xa;+changeHealthStatusPlayer(playerID:int, isHealthy:boolean)&#xa;" style="text;strokeColor=none;fillColor=none;align=left;verticalAlign=top;spacingLeft=4;spacingRight=4;overflow=hidden;rotatable=0;points=[[0,0.5],[1,0.5]];portConstraint=eastwest;" parent="y-BGLNz_TRm2ThtAnBNB-5" vertex="1">
          <mxGeometry y="60" width="360" height="170" as="geometry" />
        </mxCell>
        <mxCell id="y-BGLNz_TRm2ThtAnBNB-32" style="edgeStyle=orthogonalEdgeStyle;rounded=0;orthogonalLoop=1;jettySize=auto;html=1;endArrow=diamondThin;endFill=1;endSize=20;strokeWidth=1;" parent="1" source="y-BGLNz_TRm2ThtAnBNB-9" target="y-BGLNz_TRm2ThtAnBNB-24" edge="1">
          <mxGeometry relative="1" as="geometry" />
        </mxCell>
        <mxCell id="y-BGLNz_TRm2ThtAnBNB-9" value="Player&#xa;" style="swimlane;fontStyle=1;align=center;verticalAlign=top;childLayout=stackLayout;horizontal=1;startSize=26;horizontalStack=0;resizeParent=1;resizeParentMax=0;resizeLast=0;collapsible=1;marginBottom=0;" parent="1" vertex="1">
          <mxGeometry x="580" y="600" width="220" height="350" as="geometry" />
        </mxCell>
        <mxCell id="y-BGLNz_TRm2ThtAnBNB-10" value="- name : string&#xa;- playerID : int&#xa;- healthStatus : boolean&#xa;- userID: int&#xa;- marketValue: int&#xa;- isStarter: boolean&#xa;- position: int&#xa;" style="text;strokeColor=none;fillColor=none;align=left;verticalAlign=top;spacingLeft=4;spacingRight=4;overflow=hidden;rotatable=0;points=[[0,0.5],[1,0.5]];portConstraint=eastwest;" parent="y-BGLNz_TRm2ThtAnBNB-9" vertex="1">
          <mxGeometry y="26" width="220" height="104" as="geometry" />
        </mxCell>
        <mxCell id="y-BGLNz_TRm2ThtAnBNB-11" value="" style="line;strokeWidth=1;fillColor=none;align=left;verticalAlign=middle;spacingTop=-1;spacingLeft=3;spacingRight=3;rotatable=0;labelPosition=right;points=[];portConstraint=eastwest;dashed=1;" parent="y-BGLNz_TRm2ThtAnBNB-9" vertex="1">
          <mxGeometry y="130" width="220" height="8" as="geometry" />
        </mxCell>
        <mxCell id="y-BGLNz_TRm2ThtAnBNB-12" value="+ getName(): string&#xa;+ getPlayerID(): int&#xa;+ getHealthStatus(): boolean&#xa;+ getOwningUserID(): string&#xa;+ getMarketValue(): int&#xa;+ isStarterPlayer(): boolean&#xa;+ getPosition(): int&#xa;+ setName(_name: string)&#xa;+ setID(_playerID:int)&#xa;+ setHealthStatus(_isHealthy:boolean)&#xa;+ setUserID(_isUserID)&#xa;+ setMarketValue()&#xa;+ setIsStarter()&#xa;+ setPosition()&#xa;&#xa;&#xa;&#xa;&#xa;" style="text;strokeColor=none;fillColor=none;align=left;verticalAlign=top;spacingLeft=4;spacingRight=4;overflow=hidden;rotatable=0;points=[[0,0.5],[1,0.5]];portConstraint=eastwest;" parent="y-BGLNz_TRm2ThtAnBNB-9" vertex="1">
          <mxGeometry y="138" width="220" height="212" as="geometry" />
        </mxCell>
        <mxCell id="KcBaC5wYEgqFapC2Cxk9-2" style="edgeStyle=orthogonalEdgeStyle;rounded=0;orthogonalLoop=1;jettySize=auto;html=1;entryX=0.468;entryY=1.036;entryDx=0;entryDy=0;entryPerimeter=0;endArrow=diamondThin;endFill=1;strokeWidth=1;endSize=20;" parent="1" source="y-BGLNz_TRm2ThtAnBNB-13" target="YJq7etQ8eX4v05hcYT2W-8" edge="1">
          <mxGeometry relative="1" as="geometry">
            <Array as="points">
              <mxPoint x="345" y="535" />
              <mxPoint x="420" y="535" />
            </Array>
          </mxGeometry>
        </mxCell>
        <mxCell id="y-BGLNz_TRm2ThtAnBNB-13" value="Application" style="swimlane;fontStyle=1;align=center;verticalAlign=top;childLayout=stackLayout;horizontal=1;startSize=26;horizontalStack=0;resizeParent=1;resizeParentMax=0;resizeLast=0;collapsible=1;marginBottom=0;" parent="1" vertex="1">
          <mxGeometry x="220" y="900" width="250" height="220" as="geometry" />
        </mxCell>
        <mxCell id="y-BGLNz_TRm2ThtAnBNB-14" value="- allPlayers : Player[0..*]&#xa;- allPlayerOnMarket : Player[0..*]&#xa;- allPeople[0..*]&#xa;" style="text;strokeColor=none;fillColor=none;align=left;verticalAlign=top;spacingLeft=4;spacingRight=4;overflow=hidden;rotatable=0;points=[[0,0.5],[1,0.5]];portConstraint=eastwest;" parent="y-BGLNz_TRm2ThtAnBNB-13" vertex="1">
          <mxGeometry y="26" width="250" height="84" as="geometry" />
        </mxCell>
        <mxCell id="y-BGLNz_TRm2ThtAnBNB-15" value="" style="line;strokeWidth=1;fillColor=none;align=left;verticalAlign=middle;spacingTop=-1;spacingLeft=3;spacingRight=3;rotatable=0;labelPosition=right;points=[];portConstraint=eastwest;dashed=1;" parent="y-BGLNz_TRm2ThtAnBNB-13" vertex="1">
          <mxGeometry y="110" width="250" height="10" as="geometry" />
        </mxCell>
        <mxCell id="y-BGLNz_TRm2ThtAnBNB-16" value="+ getAllPlayers(): Player[0..*]&#xa;+ getAllPlayersOnMarket(): Player[0..*]&#xa;+ getAllPeople(): People[0..*]&#xa;+ displayAllPlayers()&#xa;+ displayAllPlayersOnMarket()&#xa;+ displayAllPeople()&#xa;" style="text;strokeColor=none;fillColor=none;align=left;verticalAlign=top;spacingLeft=4;spacingRight=4;overflow=hidden;rotatable=0;points=[[0,0.5],[1,0.5]];portConstraint=eastwest;" parent="y-BGLNz_TRm2ThtAnBNB-13" vertex="1">
          <mxGeometry y="120" width="250" height="100" as="geometry" />
        </mxCell>
        <mxCell id="y-BGLNz_TRm2ThtAnBNB-31" style="edgeStyle=orthogonalEdgeStyle;rounded=0;orthogonalLoop=1;jettySize=auto;html=1;endArrow=diamondThin;endFill=0;strokeWidth=1;endSize=20;" parent="1" source="y-BGLNz_TRm2ThtAnBNB-24" target="y-BGLNz_TRm2ThtAnBNB-1" edge="1">
          <mxGeometry relative="1" as="geometry" />
        </mxCell>
        <mxCell id="y-BGLNz_TRm2ThtAnBNB-24" value="Team&#xa;" style="swimlane;fontStyle=1;align=center;verticalAlign=top;childLayout=stackLayout;horizontal=1;startSize=26;horizontalStack=0;resizeParent=1;resizeParentMax=0;resizeLast=0;collapsible=1;marginBottom=0;" parent="1" vertex="1">
          <mxGeometry x="120" y="560" width="185" height="260" as="geometry" />
        </mxCell>
        <mxCell id="y-BGLNz_TRm2ThtAnBNB-25" value="- starters: Player[5]&#xa;- substitutes: Player[5]&#xa;- score: int&#xa;" style="text;strokeColor=none;fillColor=none;align=left;verticalAlign=top;spacingLeft=4;spacingRight=4;overflow=hidden;rotatable=0;points=[[0,0.5],[1,0.5]];portConstraint=eastwest;dashed=1;" parent="y-BGLNz_TRm2ThtAnBNB-24" vertex="1">
          <mxGeometry y="26" width="185" height="64" as="geometry" />
        </mxCell>
        <mxCell id="y-BGLNz_TRm2ThtAnBNB-26" value="" style="line;strokeWidth=1;fillColor=none;align=left;verticalAlign=middle;spacingTop=-1;spacingLeft=3;spacingRight=3;rotatable=0;labelPosition=right;points=[];portConstraint=eastwest;dashed=1;" parent="y-BGLNz_TRm2ThtAnBNB-24" vertex="1">
          <mxGeometry y="90" width="185" height="8" as="geometry" />
        </mxCell>
        <mxCell id="y-BGLNz_TRm2ThtAnBNB-27" value="+ getTeamStarting(): Player[5]&#xa;+ getTeamSubstitute(Player[5])&#xa;+ getAllPlayers(): Player[10]&#xa;+ displayAllPlayers()&#xa;+ displayStarters()&#xa;+ displaySubstitutes()&#xa;+ getScore(): int&#xa;+ setScore(score: int)&#xa;" style="text;strokeColor=none;fillColor=none;align=left;verticalAlign=top;spacingLeft=4;spacingRight=4;overflow=hidden;rotatable=0;points=[[0,0.5],[1,0.5]];portConstraint=eastwest;dashed=1;" parent="y-BGLNz_TRm2ThtAnBNB-24" vertex="1">
          <mxGeometry y="98" width="185" height="162" as="geometry" />
        </mxCell>
        <mxCell id="y-BGLNz_TRm2ThtAnBNB-30" value="stores" style="edgeStyle=orthogonalEdgeStyle;rounded=0;orthogonalLoop=1;jettySize=auto;html=1;endArrow=none;endFill=0;" parent="1" source="y-BGLNz_TRm2ThtAnBNB-16" target="y-BGLNz_TRm2ThtAnBNB-12" edge="1">
          <mxGeometry relative="1" as="geometry" />
        </mxCell>
        <mxCell id="y-BGLNz_TRm2ThtAnBNB-34" value="1" style="text;html=1;align=center;verticalAlign=middle;resizable=0;points=[];autosize=1;strokeColor=none;fillColor=none;" parent="1" vertex="1">
          <mxGeometry x="280" y="440" width="20" height="20" as="geometry" />
        </mxCell>
        <mxCell id="y-BGLNz_TRm2ThtAnBNB-35" value="1" style="text;html=1;align=center;verticalAlign=middle;resizable=0;points=[];autosize=1;strokeColor=none;fillColor=none;" parent="1" vertex="1">
          <mxGeometry x="210" y="540" width="20" height="20" as="geometry" />
        </mxCell>
        <mxCell id="y-BGLNz_TRm2ThtAnBNB-36" value="0..*" style="text;html=1;align=center;verticalAlign=middle;resizable=0;points=[];autosize=1;strokeColor=none;fillColor=none;" parent="1" vertex="1">
          <mxGeometry x="655" y="580" width="30" height="20" as="geometry" />
        </mxCell>
        <mxCell id="y-BGLNz_TRm2ThtAnBNB-38" value="0..*" style="text;html=1;align=center;verticalAlign=middle;resizable=0;points=[];autosize=1;strokeColor=none;fillColor=none;" parent="1" vertex="1">
          <mxGeometry x="550" y="820" width="30" height="20" as="geometry" />
        </mxCell>
        <mxCell id="y-BGLNz_TRm2ThtAnBNB-39" value="5..10" style="text;html=1;align=center;verticalAlign=middle;resizable=0;points=[];autosize=1;strokeColor=none;fillColor=none;" parent="1" vertex="1">
          <mxGeometry x="540" y="750" width="40" height="20" as="geometry" />
        </mxCell>
        <mxCell id="y-BGLNz_TRm2ThtAnBNB-40" value="1" style="text;html=1;align=center;verticalAlign=middle;resizable=0;points=[];autosize=1;strokeColor=none;fillColor=none;" parent="1" vertex="1">
          <mxGeometry x="310" y="660" width="20" height="20" as="geometry" />
        </mxCell>
        <mxCell id="KcBaC5wYEgqFapC2Cxk9-6" value="1" style="text;html=1;align=center;verticalAlign=middle;resizable=0;points=[];autosize=1;strokeColor=none;fillColor=none;" parent="1" vertex="1">
          <mxGeometry x="345" y="880" width="20" height="20" as="geometry" />
        </mxCell>
        <mxCell id="KcBaC5wYEgqFapC2Cxk9-7" value="1" style="text;html=1;align=center;verticalAlign=middle;resizable=0;points=[];autosize=1;strokeColor=none;fillColor=none;" parent="1" vertex="1">
          <mxGeometry x="470" y="1050" width="20" height="20" as="geometry" />
        </mxCell>
        <mxCell id="KcBaC5wYEgqFapC2Cxk9-8" value="0..*" style="text;html=1;align=center;verticalAlign=middle;resizable=0;points=[];autosize=1;strokeColor=none;fillColor=none;" parent="1" vertex="1">
          <mxGeometry x="430" y="170" width="30" height="20" as="geometry" />
        </mxCell>
      </root>
    </mxGraphModel>
  </diagram>
</mxfile>
